<mxfile host="Electron" modified="2023-11-06T06:05:25.181Z" agent="Mozilla/5.0 (Windows NT 10.0; Win64; x64) AppleWebKit/537.36 (KHTML, like Gecko) draw.io/22.0.3 Chrome/114.0.5735.289 Electron/25.8.4 Safari/537.36" etag="Vim6aYIs1DlKrok-Dx8Z" version="22.0.3" type="device">
  <diagram name="第 1 页" id="dmcEAfB_QlP7D7UfYlKp">
    <mxGraphModel dx="576" dy="401" grid="1" gridSize="10" guides="1" tooltips="1" connect="1" arrows="1" fold="1" page="1" pageScale="1" pageWidth="827" pageHeight="1169" math="0" shadow="0">
      <root>
        <mxCell id="0" />
        <mxCell id="1" parent="0" />
        <mxCell id="TuV0FFzeWKVxls9e6psM-1" value="&lt;font face=&quot;Comic Sans MS&quot;&gt;&lt;b&gt;1.假设一个子数组 sub[] 的和标记为 dp[x]，&lt;br&gt;其中 x 是子数组的最后一个元素的下标&lt;/b&gt;&lt;/font&gt;" style="text;html=1;align=left;verticalAlign=middle;resizable=0;points=[];autosize=1;strokeColor=none;fillColor=none;" vertex="1" parent="1">
          <mxGeometry x="275" y="270" width="270" height="40" as="geometry" />
        </mxCell>
        <mxCell id="TuV0FFzeWKVxls9e6psM-2" value="6" style="rounded=0;whiteSpace=wrap;html=1;strokeWidth=2;fontStyle=1" vertex="1" parent="1">
          <mxGeometry x="280" y="320" width="40" height="40" as="geometry" />
        </mxCell>
        <mxCell id="TuV0FFzeWKVxls9e6psM-3" value="-3" style="rounded=0;whiteSpace=wrap;html=1;strokeWidth=2;fontStyle=1" vertex="1" parent="1">
          <mxGeometry x="320" y="320" width="40" height="40" as="geometry" />
        </mxCell>
        <mxCell id="TuV0FFzeWKVxls9e6psM-4" value="-2" style="rounded=0;whiteSpace=wrap;html=1;strokeWidth=2;fontStyle=1" vertex="1" parent="1">
          <mxGeometry x="360" y="320" width="40" height="40" as="geometry" />
        </mxCell>
        <mxCell id="TuV0FFzeWKVxls9e6psM-5" value="7" style="rounded=0;whiteSpace=wrap;html=1;strokeWidth=2;fontStyle=1" vertex="1" parent="1">
          <mxGeometry x="400" y="320" width="40" height="40" as="geometry" />
        </mxCell>
        <mxCell id="TuV0FFzeWKVxls9e6psM-6" value="-15" style="rounded=0;whiteSpace=wrap;html=1;strokeWidth=2;fontStyle=1" vertex="1" parent="1">
          <mxGeometry x="440" y="320" width="40" height="40" as="geometry" />
        </mxCell>
        <mxCell id="TuV0FFzeWKVxls9e6psM-7" value="1" style="rounded=0;whiteSpace=wrap;html=1;strokeWidth=2;fontStyle=1" vertex="1" parent="1">
          <mxGeometry x="480" y="320" width="40" height="40" as="geometry" />
        </mxCell>
        <mxCell id="TuV0FFzeWKVxls9e6psM-8" value="2" style="rounded=0;whiteSpace=wrap;html=1;strokeWidth=2;fontStyle=1" vertex="1" parent="1">
          <mxGeometry x="520" y="320" width="40" height="40" as="geometry" />
        </mxCell>
        <mxCell id="TuV0FFzeWKVxls9e6psM-9" value="2" style="rounded=0;whiteSpace=wrap;html=1;strokeWidth=2;fontStyle=1" vertex="1" parent="1">
          <mxGeometry x="560" y="320" width="40" height="40" as="geometry" />
        </mxCell>
        <mxCell id="TuV0FFzeWKVxls9e6psM-10" value="&lt;font face=&quot;Comic Sans MS&quot;&gt;&lt;b&gt;[0]&lt;/b&gt;&lt;/font&gt;" style="text;html=1;align=center;verticalAlign=middle;resizable=0;points=[];autosize=1;strokeColor=none;fillColor=none;" vertex="1" parent="1">
          <mxGeometry x="280" y="360" width="40" height="30" as="geometry" />
        </mxCell>
        <mxCell id="TuV0FFzeWKVxls9e6psM-11" value="&lt;font face=&quot;Comic Sans MS&quot;&gt;&lt;b&gt;[1]&lt;/b&gt;&lt;/font&gt;" style="text;html=1;align=center;verticalAlign=middle;resizable=0;points=[];autosize=1;strokeColor=none;fillColor=none;" vertex="1" parent="1">
          <mxGeometry x="320" y="360" width="40" height="30" as="geometry" />
        </mxCell>
        <mxCell id="TuV0FFzeWKVxls9e6psM-12" value="&lt;font face=&quot;Comic Sans MS&quot;&gt;&lt;b&gt;[2]&lt;/b&gt;&lt;/font&gt;" style="text;html=1;align=center;verticalAlign=middle;resizable=0;points=[];autosize=1;strokeColor=none;fillColor=none;" vertex="1" parent="1">
          <mxGeometry x="360" y="360" width="40" height="30" as="geometry" />
        </mxCell>
        <mxCell id="TuV0FFzeWKVxls9e6psM-13" value="&lt;font face=&quot;Comic Sans MS&quot;&gt;&lt;b&gt;[3]&lt;/b&gt;&lt;/font&gt;" style="text;html=1;align=center;verticalAlign=middle;resizable=0;points=[];autosize=1;strokeColor=none;fillColor=none;" vertex="1" parent="1">
          <mxGeometry x="400" y="360" width="40" height="30" as="geometry" />
        </mxCell>
        <mxCell id="TuV0FFzeWKVxls9e6psM-14" value="&lt;font face=&quot;Comic Sans MS&quot;&gt;&lt;b&gt;[4]&lt;/b&gt;&lt;/font&gt;" style="text;html=1;align=center;verticalAlign=middle;resizable=0;points=[];autosize=1;strokeColor=none;fillColor=none;" vertex="1" parent="1">
          <mxGeometry x="440" y="360" width="40" height="30" as="geometry" />
        </mxCell>
        <mxCell id="TuV0FFzeWKVxls9e6psM-15" value="&lt;font face=&quot;Comic Sans MS&quot;&gt;&lt;b&gt;[5]&lt;/b&gt;&lt;/font&gt;" style="text;html=1;align=center;verticalAlign=middle;resizable=0;points=[];autosize=1;strokeColor=none;fillColor=none;" vertex="1" parent="1">
          <mxGeometry x="480" y="360" width="40" height="30" as="geometry" />
        </mxCell>
        <mxCell id="TuV0FFzeWKVxls9e6psM-16" value="&lt;font face=&quot;Comic Sans MS&quot;&gt;&lt;b&gt;[6]&lt;/b&gt;&lt;/font&gt;" style="text;html=1;align=center;verticalAlign=middle;resizable=0;points=[];autosize=1;strokeColor=none;fillColor=none;" vertex="1" parent="1">
          <mxGeometry x="520" y="360" width="40" height="30" as="geometry" />
        </mxCell>
        <mxCell id="TuV0FFzeWKVxls9e6psM-17" value="&lt;font face=&quot;Comic Sans MS&quot;&gt;&lt;b&gt;[7]&lt;/b&gt;&lt;/font&gt;" style="text;html=1;align=center;verticalAlign=middle;resizable=0;points=[];autosize=1;strokeColor=none;fillColor=none;" vertex="1" parent="1">
          <mxGeometry x="560" y="360" width="40" height="30" as="geometry" />
        </mxCell>
        <mxCell id="TuV0FFzeWKVxls9e6psM-19" value="6" style="rounded=0;whiteSpace=wrap;html=1;strokeWidth=2;fontStyle=1" vertex="1" parent="1">
          <mxGeometry x="280" y="450" width="40" height="40" as="geometry" />
        </mxCell>
        <mxCell id="TuV0FFzeWKVxls9e6psM-20" value="-4" style="rounded=0;whiteSpace=wrap;html=1;strokeWidth=2;fontStyle=1" vertex="1" parent="1">
          <mxGeometry x="320" y="450" width="40" height="40" as="geometry" />
        </mxCell>
        <mxCell id="TuV0FFzeWKVxls9e6psM-21" value="-1" style="rounded=0;whiteSpace=wrap;html=1;strokeWidth=2;fontStyle=1" vertex="1" parent="1">
          <mxGeometry x="360" y="450" width="40" height="40" as="geometry" />
        </mxCell>
        <mxCell id="TuV0FFzeWKVxls9e6psM-22" value="&lt;font face=&quot;Comic Sans MS&quot;&gt;&lt;b&gt;2.而 dp[x] 的最大值有两种情况&lt;/b&gt;&lt;/font&gt;" style="text;html=1;align=left;verticalAlign=middle;resizable=0;points=[];autosize=1;strokeColor=none;fillColor=none;" vertex="1" parent="1">
          <mxGeometry x="275" y="410" width="200" height="30" as="geometry" />
        </mxCell>
        <mxCell id="TuV0FFzeWKVxls9e6psM-23" value="&lt;font face=&quot;Comic Sans MS&quot;&gt;&lt;b&gt;max = dp[i-1] + dp[i]&lt;/b&gt;&lt;/font&gt;" style="text;html=1;align=left;verticalAlign=middle;resizable=0;points=[];autosize=1;strokeColor=none;fillColor=none;" vertex="1" parent="1">
          <mxGeometry x="440" y="455" width="150" height="30" as="geometry" />
        </mxCell>
        <mxCell id="TuV0FFzeWKVxls9e6psM-24" value="7" style="rounded=0;whiteSpace=wrap;html=1;strokeWidth=2;fontStyle=1" vertex="1" parent="1">
          <mxGeometry x="400" y="450" width="40" height="40" as="geometry" />
        </mxCell>
        <mxCell id="TuV0FFzeWKVxls9e6psM-25" value="-6" style="rounded=0;whiteSpace=wrap;html=1;strokeWidth=2;fontStyle=1" vertex="1" parent="1">
          <mxGeometry x="280" y="510" width="40" height="40" as="geometry" />
        </mxCell>
        <mxCell id="TuV0FFzeWKVxls9e6psM-26" value="-9" style="rounded=0;whiteSpace=wrap;html=1;strokeWidth=2;fontStyle=1" vertex="1" parent="1">
          <mxGeometry x="320" y="510" width="40" height="40" as="geometry" />
        </mxCell>
        <mxCell id="TuV0FFzeWKVxls9e6psM-27" value="-2" style="rounded=0;whiteSpace=wrap;html=1;strokeWidth=2;fontStyle=1" vertex="1" parent="1">
          <mxGeometry x="360" y="510" width="40" height="40" as="geometry" />
        </mxCell>
        <mxCell id="TuV0FFzeWKVxls9e6psM-28" value="&lt;font face=&quot;Comic Sans MS&quot;&gt;&lt;b&gt;max = dp[i]&lt;/b&gt;&lt;/font&gt;" style="text;html=1;align=left;verticalAlign=middle;resizable=0;points=[];autosize=1;strokeColor=none;fillColor=none;" vertex="1" parent="1">
          <mxGeometry x="440" y="515" width="90" height="30" as="geometry" />
        </mxCell>
        <mxCell id="TuV0FFzeWKVxls9e6psM-29" value="7" style="rounded=0;whiteSpace=wrap;html=1;strokeWidth=2;fontStyle=1" vertex="1" parent="1">
          <mxGeometry x="400" y="510" width="40" height="40" as="geometry" />
        </mxCell>
        <mxCell id="TuV0FFzeWKVxls9e6psM-30" value="" style="shape=image;verticalLabelPosition=bottom;labelBackgroundColor=default;verticalAlign=top;aspect=fixed;imageAspect=0;image=data:image/png,iVBORw0KGgoAAAANSUhEUgAAA9EAAABZCAYAAAA5O6dbAAAgAElEQVR4nO2dd1hTZ/vHv7+2Why4RVSKokbZQ8AgU8EBOEBBBVRcFXfS17buUeu21b6Atda2rlbc1TrAUbVWVFJFQFGgGFFKrYpaFy5s398fISfPCUk4CWGI9+e6vK7EPHnOycM5z7n3/X/mLVv9DwRBEARBEARBEARBlMlbVX0CBEEQBEEQBEEQBPG6QEo0QRAEQRAEQRAEQQiElGiCIAiCIAiCIAiCEAgp0QRBEARBEARBEAQhEFKiCYIgCIIgCIIgCEIgpEQTBEEQBEEQBEEQhEBIiSYIgiAIgiAIgiAIgZASTRAEQRAEQRAEQRACISWaIAiCIAiCIAiCIARCSjRBEARBEARBEARBCISUaIIgCIIgCIIgCIIQCCnRBEEQBEEQBEEQBCEQUqIJgiAIgiAIgiAIQiCkRBMEQRAEQRAEQRCEQEiJJgiCIAiCIAiCIAiBkBJNEARBEARBEARBEAIhJZogCIIgCIIgCIIgBEJKNEEQBEEQBEEQBEEIhJRogiAIgiAIgiAIghAIKdEEQRAEQRAEQRAEIRBSogmCIAiCIAiCIAhCIKREEwRBEARBEARBEIRASIkmCIIgCIIgCIIgCIGQEk0QBEEQBEEQBEEQAiElmiAIgiAIgiAIgiAEQko0QRAEQRAEQRAEQQiElOg3DJFIhE2bNmH37h+r+lTKjVwuL/VPIpFU6pwSicQoxyUIQjPz5s+DXC6Hi4tzVZ/KG8fCTxdCLpejffsOVX0q5SJhS0KpfT1hS0JVn1aNQ/k8VP+nC7lcjmXLllXSGRJVjSHXSFXMSZRGLBZrXGexWFyueQ2Vu4ODg8p1XGPwTlWfAFF5iEQixMfHw8TEBOPGjavq0zEKsbGxFTqfVCrVOT4uLg4tW7aEVCrFrVu3sGPHDqOeD0G8ybw/9n2MiB6BNWvWIC0tvapP541i5crPERo6AKtWroJcfrWqT6fcyFJkSJGlVPVp1Hi4Z+j/AR5dPCD20C1gDx02FFt+2AJzc3OMHDmyEs6QqA5UtexGGA57jxt1vhLK+ttt2LAB/v7+iI9fjczL3ZF/I984J2IApES/ITRr1gxf/Pe/aN26NcbFxCAnJ6fcc1pZWcHMzAzmLVuilXlLmJubw7xVS5jWq4/PPv8MaWlpRjjzsomLi6uwuYRsxKtWrYKLiwuWLl2Kgj8KcObsGaOdD1F9EWJ9lclkr81xqhsSiQRSqRTbd2zHypUrq/p03igmTpyI0NAB2LV7F75c86VR5hSLxWjQoAFaW1igdatWMDdviaZNmiBFlmLUPVwXlXWcNxX19fXY4lHmd1LOpmDNmjWYOHEiVq1ahalTp1bU6RHViIqU2ygysOKpqL+fEHnn8ePHWLlyFTZu3IATx09ALBbj7t27RjsffSAl+g1h5swZsLG2xsyZM3Hm7FnjzDlrFgL8/TV+VlkKtKGIxWJYd7LGyZO/4PqNG+Waq7CwECtXrsLatV/h+x++R1jYQKSnZxjpTInqilgsLtPIsnDRImzcsMHgY9hYWyMhIQFXr15Fhw6aQ2plKTJEDY0y+BjVkffHvg+pVIq0tDTMmjmrqk/njWLI4CH48MMPkZaWhunTphtlzuDgIMTHr9b4WWyccT1SxkYkEiEoKAgnfz2JjDdwXzcxMUFMTAzq16uPJUuXVMgx4uPj4enpiZCQEFy/fp2MHYRGmjRpiuDgIPzxRwFOnvylqk+H0JPg4CC8U6s2Tp48iYcPHpRrrlOnfkVsbCykUinWrl2L6OhoPH361EhnKhxSot8Ahg6NQmjoAJw69atRw40zL11C5qVLaNigAUaOGsX9f3VXoOfOmcOd744dCsNCeTl69AjWrVuHmJgYrFy5ChMmTMDvv/9e7nmJ6otMJkNsbCyaNGmCtm3boHatd0uFLrZv175cx5g4aTIA8BTovLw8XLhwAQUFBQCA48ePl+sY1Q0nZyfMnKG4J9ev/66Kz+bNwsnZiVOUjL32ypA9dcNTdX5ehIWFYe7cuTA1NUWPHj0QHh6Oly9fVvVpVQoNGzbEgNABCAsfCFtbO8hSKi7a5eXLl1i9Oh7ffvsdpFIprt+4gX0//VRhxyNeP2xsbBAXF4t2Jc/U8PDwar13EHwStiRw8tH8+fPxww8/lHvOuLg4dO7sAh8fX6xc+TkmTJhY7jn1hZToGk79+vUxInoEAOC77wz3iGmCtRZ7eXtDJBIBqN5CkampKQYNHsy9d3d3N9rcq1athIuLC9zd3TEofBAWL1lstLmJisGshRn+u+q/EHuIERsbq5cHRCaT8cKoT506hYyMi3BycuT+z8KitcHnFh4ejuDgIMTFxkEiVYWnTZgwAbm5uQbPW91R7leJiUlITEyq4rN5s6iotVfMpZivaZOmGDZ8GADg8uXL1Vop7R0YCFNTUwCAnZ0dzMzMOONVTcTR0REOjg5wdHSEl6cXWrZsWWnHPnHiF6xfvx6jR4/GyBEjSIkmeHh6eXIKNAC8Z2FRrWVNQoVYLOY5GGxsrI0298qVq+Ds7IJevXpjUPgg7Ny102hzC4Gqc9dwokdEo32HDtixYwdOnfq1Qo7RpElTToEGgLMpxgkXrwhq1aqNF8+fc+9/2LLFaHMXF7/C9u0KT3/ffv3QuHFjo81NVAxz58zjNvdGjRsZPI+FhQVatWqF7KwrvCIXTZs2MWi+FubmmDRpEgoKCuDn58f9f2ZmZo1WoP38uiEkJAQAeaErm8pae1aYSjlbvQt9vXj+gnu9e/fuGqtAK6vu7tmzB58u+BThYeGVqkAr+eH77/Hvv//CyckJoaGhlX58Jc2aNauyYxOaqf1Obe51VlYWTvxC4dyvC0VFRbz3+/btN9rcly5dwk97FQa3QYPCjTavUMgTXYMxNTVFZEQkAODYzz9X2HFEIn6u5unk0xV2rPJy//49rF33NQK6ByAxKdHonq6TJ0/ixYsXMDNrjn59+2Hz95uNOj9hXGztbLnXlzMvGzyPf0ltgCvZWTBvaQ7LNpYAgIYNDVPMp0yaDEtLS/Tu3RuHDx/m/j8z85LB5/g6MGTwIAAKzyV5GSqXylp71uCafKb6PisA4OiRw3j77beQnZONpBoeFSFLkeF24R0U3r6D9Iw0JCYmVXqboBv5+Thx4gQCAgIQHj4Ie/furdTjK5HJZDWy1sTrzIW0C9i+fTuKXxYjMSkRjx8/rupTIgSSmZmJhYsWwbWzK5KSDhq9EOrpM6cxbPgwuLq5oU+fPjh48KBR59cFKdE1mP79+6NVq1a4d++e0YqJaSIkNIR7nZp6Hi9evNAxuur57tvv8N23FeNpuX//HpJPn0aAvz/69iclujrj7e2Ntm3acO9/++03g+dyc3cDAGRdyYJFKwv4+XUDADRqpL8S3TswEJFRkdi9ezc6derI++zixZqrRDs4OqJ3YCAAICmp8h6CROWtvXrl1TOnq7cSvW//fuzbbzyvSXVFJqs+CuPxEiW6a1cP9OrdG0cYIyLx5qKePkW8XmzcsKFcRVZ1ceTIEdy/dw9NmjbFoEGDKlWJpnDuGkz//v0BAOd+O1ehVes8u3pyr5OrsRe6svj15EkAgGvnzrxQXKJ60blzZ+51QUEB/vjjD4PncnJ0wq1bfyErKwvZv6vax9WvXx8mJiaC5zExMcHkSRNRUFCAadOmwcHBkfd5RnrN7ZUc0k+xX92+c5tyoSuZylp7B0cH7rUsRYZXr15V2LGI15M9P/6IZ8+eAQAGhVd+eCZBEK8fyWcUrWV9fHzg4+tbacclJbqG4u3jAzc3hXfs4qWLFXYcG2trvPfee9z78+fOV9ixXhdYIdTb26cKz4TQhYdY1cM09UKqwfM0a9YMFhYWuHAhHU+fPkVOdjbvcysrK8FzxcTEwNbWDkOHDgUAODJK9PPnz5FthP7u1RETExP0698PAHDxYsXtV0Rp6tWrV2lr7+qiMlydO3+uQo9FvJ68ePECx44dAwB06dIFderUreIzIgiiunP0iCpixc3VtdKOS0p0DcXB3p57feZMxYVyd7K24b0nwUgR0q1sB+Lt7VXFZ0Noom7durxc/ow0w/u/di7ZsNPSLgAActQU3XbthCnRtra2GDcuhlfASBkmDqBG96ht164dV8zn/HkyxFUm9vb2lbL2derUQa/evbn358jgSmhh9+7dABSRPM7OjmWMJgjiTScxMYmLbHJ1dStjtPGotjnRPXv1wqgRI3FVfhVXrmRh27atvM/r168PB0cHuDi5wNvbGxfSLyA353dkZGTg+o0bvLH16tWDrZ0d7Ozs4CEW49GjRygoKNCrnY06IpEInUvCdbOzs5GWlm5w9WvrTp3g3qULggKDkHQoCed++62Ux0lRObU/Ll+5jGNHfy71G9VxcnICoLDqXjKCJ9rZ2RmeXp7w9vRGiiwFSUlJyM3NhYuzMzcmPT0DxcXFpb5rYmKC4dHD0d2vO46dOIbjx44jLy+P+7xOnTro168fnJwc0cLMHFk5WbiceRmHDh0q93kr6e7fHaGhA/C0qAgHDxxAcgXn4iUnJ0PsIUbHjh1h3alTjfUgGoKFhYWi5UFJfmTy6dMGtTOpVesdBAT0gJ29HWw62eBl8UtkZ2dj2/ZtuHP7Dm+sooI8vwBek6ZNudfZOdm8fM0///xTcCVeXx9F6FBGhkLJ/ffff/H8+XMujLutQE90zLgY3L17D9OmTQOgSAd4++23uc9TZIZXMm7UqBHc3dzg160b3nrrLaSmpmL//v0GtRdq0MAUbu7u8PNRpCqcPHUS58+dw6NHqkIvdnZ28PH2QceOImzfsaPMXLb27dpxr/WNZnFzc8PgkrZ1BQUFWLduHZ4zFfgBhZLu6OgIsYcHTExMkHr+PC5lXtJomLC1s4O9rR3c3N1Qv359FBQUIEWWguPHDOvHrWntlUqCvpibm6NzZxd4eXnhVfE/Rll7eweVwdUYkURWVlbw8vKCl5cX7ty+g3Pnz+HAgQPw9vbmjTuvxeDqH+CPAaEDcfPPP3Eq+RSSk5N5n/v4+MLFxRn2Dg4ovHMbGRkX8eOPPxotNNzBwRGhA0LQ0rwlsrOzyyUnEIbx66+/4tWrV3jnnXfg7OyCs9W8intFYWtrC7GHGD0DeuJU8ilcysxE8qlTgr+vvJcePXqAjIyL2Lt3L2/Pd3BwhI+3N7y9+XKdOt26d0Ovnr1g8u67OJ96HgkJfHncysoK/gH+COgegPSL6djz4x6jdJFo2bIlBoQOgJu7K3J/v4qly5aWe87KQrlXe3v7oPhlMWS/peiVKmPdqRP6h4agffsOSEu9gGPHj/HWtFGjxggI8Ie/vz8ePnyII0eP4JcTmiuWSyQS2Nnba5ynYcOG8PH2hpePD95+6y2D5TFN9O/XDxERkZDL5Th8+FCFy90pKWfh7e0DNzdX1KpVS6M+YmyqpRK9bNky9OnTB5cuXuLCGh0c7DB79hwACoVy3vx5aNumDe7evQv5VTkmjJ/AfX/KlMncxerl6YUFCz+FVdu2ePDgb+Rk/46ePXsCACIiI+HZtate5zYoPBxj3n8fIpEIf//9N37P+R1SqRSAooG4TCaDRKJ4P2PG9FKl3dVZtWoVQkJC8OLFC9y8eROffPIJAHA9a5s3N8OiRQvRo0cP5Obmonfv3pg1cxZ++uknTJ06Veu8Hh6KUNX8/HytY4Tw/vvvIyIiAlZWVigoKMDLly8glUoxZMgQTJ48GcHBQdxYTUJRy5YtsXr1l2jfvh2ePnuGWR6zMGvmLAQHByMnJwf29vaYM2cO3N3dUVBQgMaNG6O7f3cAwIaNG7Fo4cJynX+r1q2x5svVcHBwhCxFBnGfPhg8eDCWL1+OdevWlWtuXdy5o1Li/Py6kRINoLNLZ8yaPRsuLgrDS1ZWFqysrBAWFoaePXoiLi4WkyZPgouzC2bPnl1KeFbSvHlzDBgwAAMHDoRIJEJxcTGys7PQulVr9O7dGxGRkVi08FPeA+vcOd1FwxISEnjv58+fjx9++EHQ7/Lx8eZ+j5K8vDzY2CiiNNoJUKL79e2Lfn37cQo0ULqHuSFFVRo3bozFixbBP6AH/v33H+Tn56Nly5YYMmQI+vbpg08WfIKQ0FBIJVJBfbLHjh2LkSNHwtzcHNeuyWFh8R6GDR+G3NxcTJkyBbm5uZBIJJBKpbh16xYAICQ0FBkZFzF9+jStgpWoo6qAWn6+8Nz06OhozJ8/H7m5uVzV5549e2DY8Gg8fPAADRo0wPTp0xAREYni4mJcSL0AsYcY/fspwpfZ32xhYYFPP13AFYXLysri/oZjxozRu4+4rrXv1q07pkyZDIlUAqlEir59+/KuH018+NGHmDhhIgAIXPv/cWs/avQoPHzwQOO87m6q60yftVenWzc/TJkigbOzM+7fu4fc3Kvo1asXhg0fhnaMkQRQtCVRN3QAquehLEWG4OAgvD/2fXz99ddYsWIFatV6B1OnfoiYmBgUFRUh81ImAiIiERERiaCgIMycOZO75gwlLi4Offr0QV5eHqysrNC7d2+IRB0xZcrkcs1L6M+jR4/QpEkTeHp64quvvqrq06lUBoWH4/2xY9GhQwfcvnMH16/l4aOPPgLAlzObNmmCcePHaaxUrdwLlPtYREQkQkNCMXvObNy+fRszZ8xE1NAoFBcXIz8/H1KpFMHBwdxeom2ekNBQ9O3TjytEJ5VIIZFKAAByuRzjYsbBv7t/qXn0ZdLESZgimYKXL1/i77//hp9fN7w/9n20b9++7C9XIW5ubpgxYwZcXFzw/PkzXLt2Dba2dhg2fBg6uypk2gWfLIDYQ4wVn63QaJzt0aMHli9fjidPnsDCwgI9AgIwfsJ4REZGIisrC2FhYZBIJLCwsIAsRYbAwEAMGTKEp/soOXToEOrUqaNxnl69emPmjBmwbGOJnJzf0alTR4SFhaFtmzblMh62at0aX61ZA3t7e67KfdTQqEqQuwsBALVq1YK7mzvOnD1TYcdSUu3CuSUSCQYNGgTpB1JEDY3iKmNGRERCLBZjRPQIrF//HX4+ehR9+/SBWCxG1NAo/IdRKJcsWarI8+rbD+s3rEfWlSwMCh8EV1c33tgWZmaIj1+t17ktW74cIpEIs2fPgZubYr6oqCgkJydjwYIFiI+PR3BwEIKDgzCoxDuijdTUVLRv3x6zZyuUyB49eiAqqmRjkkohkUjw5Zer4ezsjA+kUgQGBmLixInIu34dISEhPAWWxcbGBqampgCAfAOLJYlEInz/w/eYOXMmrKyssGjxYvj5+aFnz14YGzMW5ubm2LVrF8+bd/5caSU6ZlwMrK07IioqCp5du+Lvv/8GAHz++ecIDg7Chg0b8ODBA4SHh8PPzw+Ojo4YGzMWT58+xaiRI7F48SKDzh9QeLg/X/EZTEzqICQkBFFDo7hNffr06WjQoIHBc5fFncJC7jUVFwMCAwOxfsN6uLg4IzExSVG9vG9fuLm5ITY2FsHBQYiPj0e/vv1gYWGB6BEjNM7j7e2Drdu2Yfr06QCAQeGD4ODggNDQAXDv0gXh4WHcfW1hYcF9LzY2lveP9TKrfxYbGytYgbZq1w4WFhZIS0vjFe+7dk0VadG2bTtNX+WoX78+xo0bh927d/M8lG7uXXjj9FWibaytsWH9evQODMTZs2cQGBSIwMBAODk54ZMFn8DXzw/x8ashLTH6sTnimtiwYQNmzJiBX345gfDwMPTs2Qvh4eGQpcggEokQHx/PCVyxsbGcN3LTpk1wcnLE0qXavQg2NopWY0VFRbh//56g39e9e3fMnz8f27dvR2BgID5d8CkAwNbWDtM+/gheXl74/vvv0d0/AOPHjYOzszOihkZhYNhATuiUSqXwD/CHWCzGps2bYW1jy43t27cv/Pz8cPLkL9xYbXtuqd9TxtorrnfV2isNsdrYvHkzJk6YiG3btuqx9t7YtnUrnJwcMe3jj7TOrTS46rP26kikEnz33Xo4Oztjy5YtcO/SBVFDo9AjIACxsbGQSqWccQLQbHAdNmwYQkJCsHTZUkQNjcLPJW0Zx40bp3geff8DgoODMXv2HPj4+iJqaBQCAwORnJwMX19ffPPNN6hXr55B5w8olJM+ffogNjYWPXr0QGxsLAAgODiIZ9wiKoeHjx4BADw9PcsYWbNQypkdOnTA3Hlz4dm1q1Y5U+whhq2tbak5lKlBm7/fjL59+3IeXLGHGOHh4di4aRO6+3eDVCKBg4MD3n9fYawSiUSIiIgQNM+WLVuQkJAAiVSCefPmwdnZmTfP2LFjDV6DiIhITP1wKvb+9BO8vLx499/cOXMMnrei6dunD7799lu4uLggYUsCuvv7o1+//ujs6opPF3yKUSNHIj5+NYYNHwaRSITBgzTrCDExMZDL5fDz88PgQYrWg6ampjhw4ABWrPgMK1aswO7du9EjIACjRo/CwoULUVBQgKlTP+TNs2PHDjRu3Bh+fn5o37497t69y80jkUjw1VdrsGfvHvTt0wfBwUGYMmUyZCkySKVSmLUwM2gNlHL3u+++WwVyt8p5xabCVSTVyhNdu3ZthISEIDk5mbPO3L97l/tc6S0aGzO2lPVm308/4dMFC2BqagpTU1N8umABQgcM4KzY2sYGBwfhhx/EZQqoS5YsxpAhis3l888/54WXy2QyPHr4ENu2b+f1wJSlaA9Bmjd/Hu7du4eQkBDe/8tkMty4kY82bSw5wUr5e/uHhOCLVau4sR06iACUDg+xtLTkXv9hgCdaKZQpf4tYLMZd5u9w/NhxTjDinbtaiyBvLy9ED4/Gmq/W4MqVKwCA33N+5zb++PjVSExMKmXlP37sOLKys+HauTMiIiKxdes2ZGZm6v075syZDbGHGKEDBnDfr1OnDve5paWlQfMKoZC5mevWq6NjpHCihkahb3Bfo8yli3v37xvV8zJy1Cjuwaf+93727Bni4uLQtm1b3r2Qeal0K6cJ4yfgoxJl4OLFixgwYECpMWlp6Thx4gS6d+8Ob28f7j5Vt6r26tWLey2Xyw1uieDr41NyXH5f3etMukKbNpbQxcSJE2HaoEGpc3RnHgLKHHuhdOvmh+XLV6BZs2a4evUq/vOf/+AB44n8fvP3aG/VHsOjh3P/97joidb5+vTpA19fX8yYMQM7d+7k/v/y5ctITEqE2EMMkUgEqVSK02fOcL9l9+4f4eysSC1xcXHROn+r1q0A6Gf069+/Px4+fIj4+HgAwM2/bnKfRZR4KFNTz8PP15cX1pWRnoGUlBQuImn4sOHw9fVFaup5DB06jDe2oKAAv55K5hRAX1+/MkPyDFn7FB3Pnz59+sDLy0uvtbewsMDJki4ByvVQRnKxmJiYlNvg+sn8T7jfsm/fPsybN4/7LO/6dcTFxUEqlXLXAQCcPVP62RgcFIyHDx/i4IGD3O/r0aMHACA+Ph516tTBtGnTeM/q3NxcZGdlw9vbG7a2thg/YTxWfr5S798wYOAAREdHY/uOHbzIBCUdmOc6UTk8fviQe92sWTOeDFJTYeXMZcuWIWGLKkJKm5z55EnpfTtmXAxevHiJdV8rvH7Xrl3jPhs/fjwAYMSIEUhOToa5uTlOnDjBfW7D1Lnp368/b55LTItFpfFt1qxZ2L59e6l5wsLCDDI+2dvbY/HiRdi5axdmlBjL2XsxqE8fLFxkuHOlohgzZjRmzZoNQNEXee68udxnDx88wKbNCsMFa4jVtO8HBwfB1dUVE0qijlIvXOB9HhY2EJs2b+L2qV27dvGerWKxQp/p0aMHXF1dsearNdxnt27d4upfSKVS3jyzZ8/G6NGjubFWba1KpcUJgZO7Q0ORmZmJevXq8XSSipS7795R7RHNmzWvkGOoU62U6F69eqFt27Y877DYg+8d2bhhg9bctLy8PDg6KopQhA4YgOTTyaUUaCW5V3PRuaRSqPKi08b06dO5jU0ul2sMLcrKzsaBA/sREREJAHj8+LHW8LyQ0FCMiB6B8RMmaPz85UtVn+VfT57kfq+3F79IVVqa5nY3zZurLp7CO4Uax2ijdu3aWLlyJbdJL122VOPDSykYKcnIuIhHJZZjJQE9e6C4uBh79+zl/q9NW1VfXlmKTKuydikjA64lLYj69umr901nb2+PiIhIHD50CJdKKs42adKUtxmXx2tRFoWMJ7puXeMc58mTIog9xGUPLCf6Kmy6CB0wgFOgb9+5g4WLPtU47vr167z3R48e5b1Xhnkqz09XT1NlbuT9+/c1fm5qasqF6QJAtlo1bX1wLnl4qfeYvsYo0Y0bN4apqanGkLuunl0xbtw4TJs2jecdd3FxQf369bn3+uRDt2vXDp9/vhKNGzcGAKxdu5anxCnZuHEDT5FLS71QagygyM1asWIFYuNieUqcEtZ7+fjxY8yfqxAeLCwseIqTruvKrOTB/ujBQ61jWCwsLNC/f39s3LQRf/31FwDw/qaAIrRr8OAhGr9/5coVTon29fXVOTY/X1V/wvI93QYRGxsb/Pe/sZxiqm3tkw4l8dZem8HV0LVX78e8b98+jfOze1PhHf0FpsWLF/GeeWvXrtU4Tt3oql4NXywWQ+wh5v09WRo0bIgR0dEaw0PPp57H+2PfBwBMnDARX635Su+Wjr17KoxqbCSIUpYANBv1iIrl0WOVPNH8DVCiWTlTliLDN998U2qMupxZWFiIy5cv88a0bNkS/fr2491L9nb2vDFLly3l0qU6d+YbN08lK3Ku69Spg6DgIOzZu0fjPQkAK1euxPbt2zXOs2nzprJ/tAYiIxVr8OOPP3L/x3apUO9+UR3o17cvp0ADCseXJn7csxc+Pqr2S5r2/aCgPki9cAFHjmjuj75//34u6src3JynQGfn5HC6TEhIaCn5254pOMzOAyhaQyl5/vw5LlzQLA/oQil3//TTXlwq2TO7d++Od999lxtTUQo0wPdEN2veVMdI41GtlGix2AN3797F3r17AIYS5LAAACAASURBVJQWdjMzM3VaoFjr3JUrlzEiWnNIKACYNVeFKmRna89XdXV1RUxMDPd+1RertI5l+U1DaLOS0aNG4edjx3D0yBGNn7O/48xZVWVtVsi+cuUy0tP53i8lrBL96LEwoVTJmNFjYGdnB0CxYW/etFnr2Js3b6JVK4UH6WxK6dwDdzd3nDx5EnK5HICi2Jm5uTn3eWxcrNa5/+9tVaaBtU0nvX4DoPDeAMDGzarz79EjgHudl5dnUI6pUO7evYt///0Xb731FurWNU6Ljn0//WS0gg+VQfPmzTFl0iTu/batW7VaNv/880/udW5uLs8A1T8khOelXv7Zcq3HtLW15Szk2TmajVgejGEu7/p17vo0BGUV/BS1h+Ef+fzCf5aWlqWEHQCYNGES9u7dW6rQlLrXVp9rNSYmhlOgDx48iD179mgcV79E0VOiTVEfHj0cJiYmOHpY836liIhRkJ6ehrwSg4h6YTZt87/99tu8tBAhKJXExAOqCAJT5vcUF7/CzJnTBc1V1lhWAC28p1uQl0ql3HnoWvsWZqrnz5MnT7QaXI2x9o8fP9aqRNerp9qb1I2gZaEUmJSsXbu2VGV6JX/dVEUJXEhLK2VY8O/uD4D/92TDVA8d0lzwSNN5N23aVC8lum2bNujZqxcOJR1Cakl1cpFIxHsOX71a/iJJhH48fKj6uzYtMbLVVNTlzK++1myMUuesBiVMqSix9xKr4CafTsa333zLvb93T2VsfvDgAS6VKDk+Pr6wsLBA4sFE7vOQ0BDePGvWrNE6z8lf9C+027hxY0REROL0mdP4jXnmsc6Dn4/9rPe8FYmJiQlixqn+dl9++aV2D+6//3IvNe37zZo1Q3BwEJYvV8k4YWFhvDFbt6qiYNVrQBxmivEGBwfhyJHDnHyjLlOw8wDA/Xv3gZIt7/DhwwYV5RoYNhAAsHuXygAiZtLEKlKBBvhplE3fRE90VFQkL1SOFXZv375dKvSZxc7OjheqO3/efJ3HatGiBfdam7ANgLexJSUl4VCS9orRTk6qStWZmZot12KxGPb29liyZInGzxs2asR7f+aMSjmNi4tDRsZFNG7cGIcOJWkszAKoKdGPSnu/tNGmjSVGjx7Fvd+z50et1Xut2rblFGhA4YlWx8bGBkcYQ4GyYrgSZYi3Jtq2UXmsnZ21h4Fqw8nRCVeuXOFtxGx12MOHNVv5jElhYSFatGhhNCX6dWPSpMlcZeri4lfYu3ev1rGs5+w0U1CsYaNGkEgk3Pv09AyNFZVNTU3h5eWFxYsXwdTUFLGxsci/oTmVwYM5llx+VfgPUsOshRmsrKyQmppaysusrmy1aVNaiR43bhw6duqIefPnQR0Xpp9uUVGRYCW6R48eGFSSQwUAGzas1zo2lBGI8vLykJ6uObIlIkKxL2dp8QCwua4XLvANewH+/ugfEoLjx49rfYA2M0BAbt26NdLTM3jnxAoJKz5bjl9+OanpqwAAO8YiX9ZYewcH7vXdu9oje0aOGsV5twHda8/uhekZ2luXGbr2MpkMA8MGwsHeAampqVqV9Hp1WSVa+LMCUHmMAOCvv/7S6oUGAE8miipVQwVwBwcHZGZm8n4n+/w/q0ebxmbNmuEPfdICSuSK3T/u4v6PrWPx+PFjpNfg9nLVFdY40qySBOKqgpUzDxw8gFO/aldA2QiJM8mlqx3b2NgoDNHMvcTKUAcP8FOXZDIZoqKiYO9gj9OnkrkiqNbWCudFaqoqasSzqyo/PfV8qqB59KFjSYHJdWtVxafcu3ThGbQ0pYJUJTExMbC1VTiebt++jVWrtDvaytr3lUXTMpjPWA9xbm5uKVkgMDAQQUFByMi4yNXvUMpTWVman4+a5pk8ZQqCg4Pw6OFDrhaVvoyIHoHExCScPqO4Lt99912u8CoArcVijcVdJpqqedPKMbxVKyVavepeF6awToYWAU8JW3zi77//RsZF7W2dxGIxatWqBUDxgNQmbA8aNIjLyQKAjAzt56DJa64JmUyms7og+/DOv5FfSvBW3iS64CvRwr0Lo0eN4XmEMi9ptxp5qoWWa/r7qP9OVzdVA/RTp37VGN6qpGNHlfdZW1iuLtTDfa3atkVvpkepNs+MMSm8c+eNVaK9vbwxfPgw7v2xY0d1Vop3dVVdG6zA6uvtDau2bbn3J0/+gqlTp6JBgwZo0MAUpqYNYWbWnLO+5+bmYtOmzTorS7IpIuXpD608pnotAAC4W8hXoi0t2/De29jaYuLEifhi1SpevpoSNzdVPvRvvwnvvc4KYzdu5GtN+QAAd2Z/Pa1BGFOia79SD9lWP971GzfKrPJpZqZ/AZO4uDjevJaWljwhQZNRj4XtylDWWNbocj3vusYxNjY2+IAJVy5r7dlr8KIOBa08a5+hxeDEUpdJadEnakndC80K2pro0oV5ll8svS7q+zVbHLOoqKhUpAdL586dee/1rdCtfi0BKPWsuMl40g2FzW+tCHSluLyOPHzE5ESXIzTT3t4es2bOMui7+vzNDK0loi5n/ibT3kmiSZMmnMIGgFNWWNSvZysrK16Ujnr9DkAhl6orVerzdOzYEe+99x73XlN0hqZ59EGTfNy7t6p+SVpaOq5dMzxyzNgoC68p0WaIVlLWvq/p9zswRpNzGgyQubm5paJ0NM3jwTzzNM1z//49wQVVtaF+zMDegbxrpqLlbtYT3az5G6hEq+PECAj6CEXp6Rn4559/tI4NDgrmXut6OHuo5Z+mp2s/Bw+13G1Dwxa8PFXKqaFWm//D/xn0PW9v1bGLiopw4YJ2wcjDQ7XeaWlpuH37dpnzezGGDnWPFUvDhg3RsmVL7n3WFd2tX4TQu3cg3nlHcbmfOXtWa9ghYRw6dOD3ZP7552Nax1pYWKAtoyinMWkKVmqtcTRVMc7MzMS2bVtx+vTpMos+NWjQgGfsUs/N1AdlmO85DUr006dP8fTpU86AYqlWXEwqkeDcufPYuKl03piLiwvMzFSGsHO/CRNKOnXqxDNGpGhIsVDSuHFjXn6UJmFMCK5u/AqY2lJMdGPYfsXiyeybT58+xUUdBk9nZ2fu71LWWLFYzKudoJ6rr8SlswtPUNW19uoG13Qdx9eFMdbe0JV3Uzu2LiW6U6dOvDQeXXu/ElbYzLyUqdPgKharFPS///5ba/6mULp27cpTzA0tOkgYkf9V9QlUHOpypnp9DRY3pu1hVna2IOOOA7PPa1K4hNJR1JH3Xsh9XF7q1auHwN6B3PvDR7RHglYFzi7OMDFRRcDqMloasu+3bNmSF5Up06M2ijpsTaXyzKMPvQNVBpDExKRKlbv/97/K2TSqtxLNhEdrsl6zsJ5RXcJEvXr1yqyOp6QTU6Xw5cuXOj3Rbq4qoeL06dMGVbUDgC5dVJvkKQOVaDaUVGg5+ebNm3Oht4BCcCkufqV1PJtjo8myqY6NtTUaN27CfEf7WlpbW/Pe5/xe/huvd6DKs3D2TMX3jgOA5iUetrJ6hddERB35SrQuCy0byn316lVePmenjvx8+PL2iGSVrefPn5fLau7t7YXCwkKtc9wtvMspz23eUz0IR44ahe7duyOSaSXCUiofWodQxdKpE3+tZDLtHmxlr24l53TUcNBFZyZM8MrlyzqVHW3oCpEWihe7/2dk6Ny72KilssZ6e6lC0c6ePavVy2nTiV/UTNfaq7feMKSAC2CctWdzhxuYNhT8PSdn/vVz+rT2PZV9Ngs1uLLef11F9Ro0aMALVb2SpT1FSCg9e6lC8mUp5fOssdQ0T3FF07CB6npkPUz6kpmZqffaK/NIK+NvxsqZcrlcp5LLKtznzgl7Ltjbq9JR0srwlOrC1l5Vo+DcuXPl7skuhKDAIM6h8uzZMySVYSSvbNT3fV2Ksfq+n6EjjUcJG5FZXPwKvwn8m6vj6urGFfcqzzz60LZNG/RmDCBJSRVvjDRjiypXUiHCatcnWomdnT3eeedt7r0uL7C7uzvnZQR0h34H+PvzQpa1VUWtXbs2bBhlLu1Cmtb8YACwtlGNPX3aQK+OqyuvFLzQTVIdViht0MBUx0gVHTrwlZOMi9pvcAdHR55nIVlHKKgSdyac7/79+zh1SnvOT1AQvxdrnoZwV33o2aMnL49IyPkaA2VYvb6VYmsC7IP777//Rh5TrVodZ0YgV3+w2NiqHlLGqBrORqywLYD0RSQSwdXVDTKZDC9evNA4hjVmKZVpJydH/OeDD/Dll1/ighbjExt2pStXWR11Jfo3HR5sZV9mQNH+RNm/XV9cGGPaeQO9+saoustG0aSXYdTryirRZYxl5z2mpSsEAHSy4Rv+dK49I3hV9doXPWOUaIHPCgDwZtbw+vXrOmsLdGby+4UKb2x7t4uXtD/7PT29eBEA5SkSqITNM086VL2E9jcJ1gFwV88uI68L6nJmWbn/vBoI54Xd82zEUU5WOTpROKqe05WhhAFA336qlp5JiUmlilVWNer7vi7FmN33c3NzBT33nJzYUO5zBjvnvLxU+3V55tEH9lq9fuNGmVGCxqAZkxp214BuE4ZQbT3RHl1VFrfLly/j2TPtikhXRugEdFvbPBmh6Nxvv2ktuNJJzRt6IV23t4D1nhqqRIsZRbM8wtW9QlXbE6HeBVs7O977c+e1e1Lc1UL5hORps+F/KWUoQ+5q65Bs4HoqYTfiU7/+ios6DATGolmzZnjrLYWNylieaPU+4RVFWS2khMA+uH/P+V3nWCfGwKHu9WGLTt0uLP+m6OllHCVa6fnUFRb1559/cm3alEX4PvroY1y9qrlNHqAoVsaGXenKVVaHVaJzcn7XGdZqyyjRZeWzaqN27dpcJX9AuFCnTnFxMR4+fIiGDYV7Qlnad+jAE7jLrJ/B5kPrGOvt7QNHphDML7+c0DqWFYTLWns7e9WaVfXaPy1ilWhhUUs21tY8Q3RKim7Bn41aOqmjgBs3v40NGjVqzL2/mqtdQfdUe/YfO1q+yr1+ft248MmnT58iKYmU6KqiYUPV9VhohGiV6oi6nHlGx71kY23NC+09L2DvMDEx4VW2zso2LDVOfZ7zGnJqjY27exdeUa1Dh6pXKDfA3/fT0tK0FvsF+Pu+kOhNgK+IGupUA8CrnVGeefTBr5uqlZcQHcEYsJ7oO4VvuCfamwm7LCtv0YMpoZ6dk6Ox+TwAvPPOO7yc48NM25AWLVpALpdzlYAfqrXgSNeR/xEcHMQJ+3l5ebx86IQtCdiklvfYOzAQCVsSEBERCRMTE+7/WeVRl3C1du1anQUvWE90czNhVS3v3eUX7zqvI7yTrRzMbgb29vaQy+W8gjNK2FweXUYGL09PWDPKwLp16ww2JgCKkJK+fRlr5iFVVe5u3btBLpdj2LBhmr5aLtjibkVFxvFE169fTxFeWMH/7hlQyE0d9h64fkNzMSZAoVyylZLPnuULEWxxu8JyWk/Nzc1hZaXKsdYk/C9eskSQN8u1JH0jJUX7A6kgn18hOCIiEp6enlj71Rqt7SO8PL15PRX1yVVm60CcOas7ZYH18LPhxBERkaV+f7NmzTBr5ixMGD+BF3qvHnauTaiTSCSQy+WlehezKK3yDRrpr0g7q1X9T9URHs3uQ2WNDWRSQGQpMl40xdq1a/ET026OLX6oa+2bNGmKwEBViBu79jNnzKywtWeNWixslExzgQXeHqs9X0/+ekrrWBcXF17UEvu8+OmnnzQ+x9yZv1F6eoZO71NXT9Wzf/P3m8ttcA0I8Ode//zzUe66bNKkKeRyucG9bwn9aWCqUqLLE85dnfnnFT+VRFeqGVtg6tatWzxDnVwuLyVnAvxCtcXFxQYb7dSr1QtVAstDULBqn7ySlYVjx1V1VRK2JGDfvn2oXbt2hZ+HLth9X9eaqO/7bAcSTfs+oOhMoqtwpD6wqbHlmUcobdu04RkA2HZnYrEYcrmc18LQWLCtiwvvvsGe6CZNmvLyqMqysrMWMk1FfpR4+3hzHqGioiIcOqyybEVHRwMAjh9XhOzl5+fj8ePHXKiYuuDAEjpgIPf6EqM8eHbtCrGHmNfQfMyY0VxTdrGHGOlpF5Cdk4PmzZvzhCRt7QHc3NzQs2dPzJ+vvYUXmwvwnqWl1nEsedf5IdO62p1oy4f29fVFUVERr62V8hzYvqh5edrDs/sxbcx+/vln7Ny5s+yT1wF7IxcWFuIQE54XHBSM23fuVEiYSXP2ZjaCBxVQPDgqusKrscjKyuIE90cPtVeIDw8P517n5eWVKpSSk5vD3d/16guvch4fvxpJSQd5f1tPT5XX6v69e7ihVpXfvUsXRAwZgg3rN5Q5f+fOLrhxI19npVD1auSRkRHYmrAVR3/W7i1j20EAwHk9PIz37qsiUB491F5p2T/AH20YjwZ7D/fv1w+31cKgdu3aiffeU+wj27dv56IF2P3q8ePHGr2vtWvXRkhICG7cyNeZW3q38C7at28PS6aSp1D4rQUzdRrduri5CxprYmLCq9CcfEYl9Hh5eqFnz568PvdXc6/CwsICgO61F4n4tQKUa1+3bl0MGDiAp5gDwta+oKBA59ofPXJEa6FLVokWuvYFBQW8yAF1gzMLq+xfvnyZS4ny7NoV9vb2WLhoUanvsAq/Lg+Gi4sz2rVTpCH99ddNrPt6ndaxQmjVqhWGDh3Kvd+1U9XySllHRb2tD1FxmJZcX0+LinReY68z6vuPrm4qPZj2eWxRL+W1eVxDugmr/CYnn8arV9rrP+iCnSc9Pc2g+gv6H1Mlu7H9jx0dHSH2ECM2NlZniqVQhg0bhu7duiPjYkaZnSTUYfd9XWvCRmIWFxfjcImMrG3fBzS12TPMcNG2TRs0KmmdW5559EE9lJvdx6Ojh+P2nTsau5KUl2ZmqsjFm3+Wv6OCEKqlJ9rTsysvx1lX2Iq6d0NXgZxePVWV4s6ePcsJHiKRCNHR0Tim1sv091zdYaiAYgML8FdZr9n8XWXuHXsB9eqlOgdAFXLg7u7G80D9qcX6PnTYMFy+fFlnKfrz589zXimhgtH16zcEjYuPX83zLLCVJLt6euL06dO4zwjzACBmWukAgF83P2giNHQABjFK1bp15ROKAH4IzaFDh/GwRMC1sLBAcHAwtm3dWup8jQEbVqKreF1NhW1TZWmp+RqUSCS8atvqXmgAOHFCde8olYmyiI9fjeDgILRq3Zr3/xYWqvPQ5IFcsWw5Xr58iT179+icPzg4CObm5rhVRhXg/D/4SnTTpk2w5qs1Or/DPjhv3MjX69q8d1c1lr1H1WEjRR4/fswVshGLxRB7iLFt61buc28fH966F79UedADAgK419q8haNHj0bbtm2xfv13Os/99FmFB7FevXpo0kS/djasUa+sUDU3d1X1cl1j27ZpgyZNVIUQ2eiZsHCF0ZRNB2CLAela+1GjRnGv2bX37NoVTZs2xS/MnELXXptxYvz48Wjbti0OHz2i8XMlR0sEOn3W/upVVYg1G93BEhwchNmzZ3Pvz6k9KwAgKTGx1PdcmcrYbI9ulqZNm2LOHFV/9XVfryt3VW62Fcv169dxmvEKKg2u27ZvK9cxCOE0LEkv0JZyVxNQV6LVuzgoUZcz2ejMoKA+ADQbnNguKuVJY2PnqYyq3O3ateOFrrOh3Ma8F1esWIEFCxagW/dukEqliB4+XK/vC6l0bmNjg5kzZnDvL6Re4CLRNO37SroyHQrKY7hwYgyZlWUAYeVu9rq0tLREQEBPbNu6VWfou6GwnujsSto3qqUS7c54C2QpMp0PR6UVCABevHihsz3Ak8cqb3LBH6pQy+jh0ahbty7++8UXvPFxsSqrFHscJcHBQYiPX837v7p1FN4yU1NT9OzZE0eOHMb1GyoFlRXkv173NSckKzdCJWwpfCXTp09H/379MG/evFKfsfzzzz84UyIAWAr0RD988ADbtqmEZ02/V6mcaMLV1RWeXbtqDNVmPYAvX75Er5690KJFC94YW1tbLF68EIBCII+KijI49IilFhPuc4kpUDNu3HjcunWrwoQitvetrj6wNZVt27ZyBimxhwfMWqjWo379+qUUaEBzUY5fT57Ejz8qlFovLy9egTh1/AP8se6bbxAcHITY2Fh8+823WseqW/wlEgks21hi6ZIlpXqzK2nUqDHvnhd7iNE/JISXksGi7v1b9/U6nS1J7O3tOYsxgDKVdHXYcD4Hh9Lhu6ampoiPX803+jEhykOGDEH+jXzePcEKMrGxsfhhi8J4N378eJ7HkC3uxPLxxx9jw8aNZfafPMf0wtZmdNGEetuQQ0y6hjp169aFG/ts0dGP9f4DlXBbUFDAtS5xcHBASEgoYmNjee1Mvv1Oda3pWvuejDeJXfvgPn2QfyOfp5izay+Xy7m1l0gkvLW3aF16r/YP8IdUKkVsbCz2/KjbKMRGRghd+x+ZOTt2EpX6XHmfaBPYvL29sX///lKVurt29eC6RKSlpSHA3x+9evUu9f3PPlvBhTrOnTsHm7//XtB564INzbx9S3VeUUOjOONSZRTkqS6IRKX/rpWJMkf/Sg1Wop8/f46ly5Zy77v5lnYwKO8lNkLo+nXF3uHn1w3BwUE4cpgvZwKKiM42jFJ+9IhuY5o21OepjHBgdt+4du0aZ7Rz7dwZ0SOijXYvhoWF8d7HjItBrVq1BH+f3ffZNp0sW7du5RlH6tRVtcQKCR1Qat9XwkbxlMdwwXZxqAwDCMCXuy9nquSpjz+ehoKCPypQ7lY5r+QV4OnWRLVUotnNW1d7CwBozXibfv31VxTqyJ3ZyiiJpg0aoEmTppBIJIgaGoUR0dG4coXfHiM5OZkLB5VIJJgwYQIAhbA7d84cxMevxsYNGzB+/HjuO9Y2inzerVu3QiQSYemyZbw5v/tO4ZGJjYvFlh+2QCwWc8rplCmTueNJpVL0DwlBvXr14OrqhrVr1yImJgYzZswQVK1XaUx499134eCgXfFgmT17Dvd63vz58A/wR+PGjTFkyBB899138PHxxsJFixAbqwpjtLGxgUgkwo4dO5CVlYU9e0oLbJ2Z3rXfrf8OVlZWiBk7FjY2NrCxtsbMGTOxYcMGmJjUgSxFhpEjRxqtrQgbGdCwYUPY29tj8eJFCAnpj5kzZ1aYUCQuKYz3+PFjXMq8VCHHqO6sWvUFrt+4gUaNGuGzFZ9h3vx5+OK//8WZM2cwceIkLFq0mDdeW2XLNWu+5Cpzf/PNN+gdGIhmzZqhhVkL9OzREx9O/RAbN27EN+u+QUNTU4wePUZjWNaBAwc4y39AQABEIhH8A/yxd88eSKVSjI0Zq1EYl0gk2LlrJ1JSzpYymn2xahXS09ORsCWhVFRMUVERpygln04uNbd/gD8StiQgMTERv/32W6mQLrGHInfo559/RsKWBK5egzbu3r2LKVMmAwBsbe3w+WefQywWw6yFGXr27ImtW7fCyqotRo4cyVnQRSIRxGIx/Py6ISQkBEuXLePdE4mJSXj58iVkKTJcuXIFDx89xMhRo/Dxxx9j69at3PEsLCww5v0xsLCwgJWVFS+3etHChTrPG1D87Z89ewagdCsQXXgw1vqTJ3/B+fPaC954dPXgej4/ePAAKVo6MwDAndt3OEOkEldXV3z22WdISNha6voSsvYtWphh5MhROteeDVtVrv25c+fwn6lT8ezZM874FBsXy4WTiz3EGDlqFMxamMHKygrRw4fjm3Xf4OTJXwSFJ7J7rdC137ZtK+dhGBE9AhKJBGYtzODm5oZZs2YhPn41tu/YjiWLVfd4h44iWFhYQCKVwNHREVuZiAclXt6qdAZl9MLMGTO46ImIiEj89NNP8PPrhsLCQoyNGYuEhNLzGEJ+fj4vosKshRkkEgkWfroQsbGxeod6vm4o04UStiQgPT29VCEn5X6UlZWF48dPVGh6ka+vLxeNeM0IFderM6yxN2ZcjEY586uvvuI5ORxLZLp58+fh5s2bWLiY/ywFAFdXVUTHyZO/ICvbsMrc7DwPHjyolHDgwsJCHD16FIDC+Ako7v1ly5dhz54fjXYvqnuSW7ZsxatnUxbsvh8SEoJly5fDysoKFhYW6NGjB+RyOW7evFnqmevauTMkEgmCg4NK7fuAwujK6kHlMVy4uqnk78owgAB8ubugoABOzk5Yu3Yt/Px8K1buFiscduo1AyqSapkTreTBgwc4cli7ZwHgFxUr68bKy8tDbFwspBIpwsLCOCvU0mVLtRYkmTJlMm7dmo3Ro0fjo48+wkcffQRAcTGOHz+eu9GnTJmMqVOnwsfHlxMeY2Njka+Wd7l+/Xq4uHSGVCKFVKLwxF2/cYNToBVKtEKpZisxZ2ZmYvToMYKr3LFeEk/PrjwvrC7at2+PWTNnYcz7Y3geq6NHjyIyMpIXWjVmzBhIpVJIpVLcvnMHCxcuLFWJun379rwwuc8/+xwvX7yEVCrFSCa0MSsrCwf278eqL74wal9l5TURERnJhRamXriAjz7+2ODeuGXRsFEjrr/s+fPntRaRqumcPPkLhgzORMzYGNjb2yM8LBw3b97EwYMHsXPnTtjaqQpL5Obmag2NysvLQ9TQKMybPw8jokdgzZdflhqTmJjEM0Jp4tq1a5g0aRKmT58BJydHTkjMyLiIgQMHICND8z2i7jFXp1atWhB7iPFoYelc2Du37+DVq1dYtFBD7qedPa+egzasrKxgZWWFnbt2lTk2MTEJRUVjMHXqfzBg4AAMGDgAgCIHfN++fVwO6pQpU7Bs2TI4OzsjIUEhCJ869SuOHOHvt/fv30Psf2Px8bSPuXN9/vw51qxZg5UrV5aMmowPPvgAs2bOwqyZs7jvbtu2lWeY08WLFy/wm0wGv27d4ObmpjOKgIX1Qicl6a7e2qplK+719h3bywxr27x5Mzp27AgLCwtuT08+nYy5czX/psTEJNSrNwMffPABb+3z8q5hx46dXHrKlCl/6b32+0oMLM+fEqzCJwAAC+lJREFUP+crdP8Dhg8bhrlz5mDuHNV5rV+/Hos1CNaaKCgogCxFBrGHWK+1Hz16DCIiIrF48SLuOQAo7qcPpFLsP3AAAPCk6AmmTZsGby9vzuOyZOkSjYZSti93B5EIH3/8MaZPn47Fixdh8eJF3Pnu3r0bmzdv1prrbQgvXrzAwoULETNuHMQeYpw9cxa379x5IxRoAIL2IkCRa9+mjSXatLE0SttBTbAeworInaxutG/fHosXL0JERKROORP/U6TIKO+3a9euYd7Chbj555+l5mT3Rrawk77UqauqRbJ3z55KCQcGgAULFuCtt99GgL8/5HI5nj59ir179mLuvLlGO8aUKVMwcuQIREREIi0tDS4uLmjRwkxnxJg67L4/KDycS0mUy69i5cqVWLNmDXcs5b6/o6TWj6Z9HwCaMqlEshSZzpawZaG8Dso7jz7ExcWhebPmCB0Qyj3jKlru7tbND7VqKVTaykwB+T/zlq3+V2lHE4hIJEJQUBAuXLiAZKaKnbaxYrEYd+4UarwYNdG9e3e0bt0aL168QFZWlqAHsVkLM9jb26NVy1Y49esp3MjXnEPs7u6OTp064eLFi7h4Ubvi2jswEJaW7+H3nFyNinGTJk3g4SFGnTp1ceXyZb2tiPXr18fPR4+iuZkZDiUdwqTJk/T6vkgkgouLC16+LEZy8imNPe3q1auHAH9/1K1XH8dPHNNoXYqKisLCEk/U/fv3ucqr3t7eaN+uPZ4UPYFMJjOo/59cLtdLwImIiETu7zk6K/KW9xgAvxXVf/7zH+zbt0/wd98kvvv2O3TrrihAsXnzZixYsKDM71hYWKCDqANEIhEe/P0A165dM6gdnL29Pfz9/XFcrQ5CTcLe3h6unV2Re/V3nDt3DsXFpYvKdOrUCb179y5zr/Xy8sJ771nif//7F4cOH9ZY6Ee5phcuXEB2drbe/Z+VXtbbd27Ds6tn2V8oITRUoazuLSOXHVCERtaubSJoLKBoYWJtY4smTRsjLy9PY/EederWrQsba2s4ODnhcmamVqHBWGtfq9Y7cHd3h7W1DS5fvozc3Kt613kwdO0B1bPR3s5e5/3k7eODTp06QpYi0zimXbt2KmUBwNiYsTh+7DhsrK3h6OSEOnXrQpaSYpCApPSYCm3d59q5M0QdO/G8f4T+JGxJgNhDjPbt2wv+zrvvvovU1FTUqVMH58+fx5AhQyrwDDUjl8uN0upRX4TImXXr1oWXlxfq1auPkyd/0fnsU0ZwlPc6DgsLQ61atY1yPyj3GqHXhL29PRydHLF3z15eIURjHgMA+vQJRlxcPPoEB2st7KuLevXqwd7eHmKxWOc+KHTf9w/wh5WVFU4cP1EuQ5Kx5gEUdVMSEhIEy8R169ZF6IBQ5GRlC5a79T2GkkWLFiEyUnG9V6bcXS090bq8UuUZq+TECe39PrVx5/YdHL9dtgB17tw5QZaWw2X0vLt//365qkY/efIEO3ftwsSJE+HexR1169YVvAEBwta1qKgI+/bv1znGmamcy/aHTk5OLtNAYmwqSyDy9+8OAMjJySEFWgf2TO5otkAjUUFBAQoKCvDLifL1HczMzKyxyrMSIb8xJycHOQIEBkWtA93tg8q7prt27cKIESPQwqwFgoODBO9/QhViAHrvqVnZ2XobMJ8+fYrUCxfKFBqMtfbFxa9w5sxZnDmju1+zLgxde0D1bCzLwJB86hSST2lvh6Ve70B5LRnyNygvQv5+RMUwYOBA1KmjyBt9056fQuTMp0+f8oxNujCWzLN7926jzGMIlfWsVlb6Z+th6ENRURFkMlmZqYhC930hBlshGGseQ3j69GmldZQJCOgBoPLl7mqZE00Yh127duLJkydo2rQpPLt2LfsLFYAT0+fubIru3rU1gYaNGqFnD8XN/KYJACxsr29N2Fhbc73VAUU1XOLN5ubNm9i5QxHmpl5okahYqsPai5n89ry8vDeqiBehwr+7wgh98+bNN/oZSlQuVu2scPfuXfzNFBgkXg/8/LpxRcUqe88gJboGc+NGPnbuUghGASWKXWViY2ODDh1UfVFzsirXm1AV+Pn5wcSkDgoKCrBLQA5rTcPb2xsHDh7EwcREXnsbdXoyrd4yMzONVkiOeL3ZuWsnXrx4geDgIF51UqLiqeq1Zz3RhkSLEa8/bSwt0b1Eid66bWul5d+qExISgrExY6vk2ETlIxKJ4Ofrh7179mpMeyKqN37dfAGgSuRuUqJrOLt27MI///yDwYMHw8fHt1KPzXoWAFR6SF5lU6vWO4gqycnYtHmT3jmhNYGJEybCxtoagKIAiibMWpjxinWtWvWFxnHEm4dcLsfOnYqH4OjRY6r4bN4sqnrt2ZZeaWkUSv0mMmz4cLz11luQX72KzZs2V9l5ZGZmGrXAKVG9mTBhAho1aqRXahBRPXBwcMDAAQMBVI3cTUp0DSc7J5vrZTdmzKgyRhsPJ2cn+PqoKq2mp2egjcCe1a8rU6d+CHd3d1y+nInNTM/eNwWxWMyr8JquoT921NAonGVyN2fMmCG44jzxZrA1YQtu376N4OAgrX3piYqhKta+YaNGGDlqFK/fenHxK166B1Hz6d69G2d43bR5E548eVLFZ0S8CYyIHoGQkBDExsbWeEdPTeTDD6fC1NS0yuRuUqLfAFYsX4HDhw/Dx8cXgwcPrtBj2draQi6X48fdP8LPrxv3/87OTjhw8CDkcnmlFRqoTHr27IWYmBjcu3cP8+bNx6tX/1T1KVU6MpmMK5iXm5uL73/4Hn5+fhCLxRjz/hjEx6/Gwk8VldovXryIsLAw7Cxp9UAQSrJzcrhK7eSNrlwqe+3lcjkupKby2nMBwNq1ayGTySCXy3n9UomaSe3atTF58hQAwIaNG7GlBsoIRPXD3Nwc8+bPQ3Jy8hvRxq6mIZFK4OPjW6Vyd7Wszk0Yn4kTJ+JgYiLmzp2Lgj/+wJmzhldy1YWNjU2ZvSNTZCkVcuyqonnz5vjww6kAgFkzZyI9vXIa2ldHPp42DfK8a5g4YSJWfv4577P8G/nYvXs3EpMSy11dm6jZHD58GLNmz8aSxYuxZOkSXv9pomJh137mjJlYumxphRzHwsKizGeFId03iNePKVOmwNnZGfv378eikpaYBFHR3Lp1C7IUmc76LUT1xMfHF1KJIi2wKuVuUqLfIPoEB+Py5ctYsnQpxo0bJ6jMvr7s3r270tshSCQS3vvyWBTV5xLC1KlTIRKJsHz5cvx87JjBx64JFBUVYeXnK/Hl6i/RsGFDNG7UCA0bNTKody3xZrN92zY0atgQ06ZNw72797By5cqqPqU3Bnbts7KzKyRXsKCgoNL78BrzWUGUxpDnp0dXD0ycOBGZmZlcFARR86lquU1JZe9BNQV2zYW09hI6lxBMTU05x1VVy92kRL9h2NnZIT5+NZYsWYqwsIFVfTrlhi1QBQCxsbFGna8sJBIJBg8ejClTJperr3dN4/nz53j+/Dlu375d1adCvMZ8/fXXePb0KeZ/8gmSk5Opinslolz7lSs/R0Z6GvJe8zZ0Yg9+zQZZigxxICXa2Oj7DP1k/ifYtHkTPl3waQWdEVEdUb9OymvQ0ve6IwxHfa2jospniND3bzdq1CiYNmiA0aPHVHlNnf8zb9nqf1V6BgRBEARBEARBEATxmkCFxQiCIAiCIAiCIAhCIKREEwRBEARBEARBEIRASIkmCIIgCIIgCIIgCIGQEk0QBEEQBEEQBEEQAiElmiAIgiAIgiAIgiAEQko0QRAEQRAEQRAEQQiElGiCIAiCIAiCIAiCEAgp0QRBEARBEARBEAQhEFKiCYIgCIIgCIIgCEIgpEQTBEEQBEEQBEEQhEBIiSYIgiAIgiAIgiAIgZASTRAEQRAEQRAEQRACISWaIAiCIAiCIAiCIARCSjRBEARBEARBEARBCISUaIIgCIIgCIIgCIIQCCnRBEEQBEEQBEEQBCEQUqIJgiAIgiAIgiAIQiCkRBMEQRAEQRAEQRCEQEiJJgiCIAiCIAiCIAiBkBJNEARBEARBEARBEAIhJZogCIIgCIIgCIIgBPL/EbMsZKhV9uUAAAAASUVORK5CYII=;" vertex="1" parent="1">
          <mxGeometry x="280" y="600" width="337" height="30.7" as="geometry" />
        </mxCell>
        <mxCell id="TuV0FFzeWKVxls9e6psM-31" value="&lt;font face=&quot;Comic Sans MS&quot;&gt;&lt;b&gt;3.也就推导出如下状态公式&lt;/b&gt;&lt;/font&gt;" style="text;html=1;align=left;verticalAlign=middle;resizable=0;points=[];autosize=1;strokeColor=none;fillColor=none;" vertex="1" parent="1">
          <mxGeometry x="280" y="570" width="170" height="30" as="geometry" />
        </mxCell>
      </root>
    </mxGraphModel>
  </diagram>
</mxfile>
